PathFileType	4	(X/Y/Z)	s04c0303.trc
DataRate	CameraRate	NumFrames	NumMarkers	Units	OrigDataRate	OrigDataStartFrame	OrigNumFrames
200	200	4	50	mm	200	500	2000
Frame#	Time	racr			lacr			c7			jug			rlel			rdr			llel			ldr			s2			lic			ric			lasi			rasi			rpsi			lpsi			rgt			lgt			rth1			rth2			rth3			rth4			rlfc			rmfc			rsh1			rsh2			rsh3			rsh4			rlmal			rmmal			rcal			rtoe			rmt5			lth1			lth2			lth4			lth3			llfc			lmfc			lsh1			lsh2			lsh3			lsh4			llmal			lmmal			lcal			ltoe			lmt5			SBIKE			LBIKE			RBIKE			
		X1	Y1	Z1	X2	Y2	Z2	X3	Y3	Z3	X4	Y4	Z4	X5	Y5	Z5	X6	Y6	Z6	X7	Y7	Z7	X8	Y8	Z8	X9	Y9	Z9	X10	Y10	Z10	X11	Y11	Z11	X12	Y12	Z12	X13	Y13	Z13	X14	Y14	Z14	X15	Y15	Z15	X16	Y16	Z16	X17	Y17	Z17	X18	Y18	Z18	X19	Y19	Z19	X20	Y20	Z20	X21	Y21	Z21	X22	Y22	Z22	X23	Y23	Z23	X24	Y24	Z24	X25	Y25	Z25	X26	Y26	Z26	X27	Y27	Z27	X28	Y28	Z28	X29	Y29	Z29	X30	Y30	Z30	X31	Y31	Z31	X32	Y32	Z32	X33	Y33	Z33	X34	Y34	Z34	X35	Y35	Z35	X36	Y36	Z36	X37	Y37	Z37	X38	Y38	Z38	X39	Y39	Z39	X40	Y40	Z40	X41	Y41	Z41	X42	Y42	Z42	X43	Y43	Z43	X44	Y44	Z44	X45	Y45	Z45	X46	Y46	Z46	X47	Y47	Z47	X48	Y48	Z48	X49	Y49	Z49	X50	Y50	Z50	
500	2.5000	797.597402	1292.262794	-72.871053	785.541405	1325.301165	-393.135770	813.697708	1389.449450	-237.982970	739.962134	1254.795344	-255.584120	554.484577	1110.754615	69.115384	695.357698	925.079921	-93.977718	595.890671	1152.809258	-551.950163	694.878233	905.930815	-483.795409	226.843090	1299.731967	-325.433529	403.973833	1250.397444	-438.515952	332.039028	1303.407307	-132.473837	423.982172	1197.993647	-387.103380	377.089445	1249.789866	-164.088208	252.492157	1344.324013	-281.706203	274.073963	1334.384709	-355.087603	286.005593	1256.041073	-118.251664	346.437520	1167.619154	-467.899530	383.525825	1120.737340	-97.381982	452.430003	1067.526184	-96.559312	487.999199	988.950137	-101.168105	480.518628	1088.882763	-113.812939	561.593624	861.044880	-120.513931	548.369954	843.913251	-234.537834	487.818511	760.005522	-101.346567	457.434526	675.009921	-116.435989	389.292938	623.312939	-125.804447	486.008602	660.110260	-138.290716	310.509392	495.093092	-134.122616	334.818480	497.742082	-218.457858	236.958288	485.136242	-173.500066	517.692467	382.275766	-162.458038	447.240250	379.281268	-106.290071	368.715818	1077.133928	-472.851021	411.003140	1001.692133	-466.511889	441.314458	1010.499547	-450.196955	412.268664	912.979672	-472.906611	410.221091	747.777077	-461.462219	420.326309	712.308874	-349.953093	337.705947	640.777235	-485.537352	295.274287	567.859573	-463.700802	220.373517	519.609993	-465.374460	315.243094	553.410464	-432.895252	113.021480	410.712724	-462.780654	114.541377	418.036355	-375.149148	50.442277	457.209958	-423.903183	186.396389	181.671847	-402.614248	125.328892	225.110878	-468.915818	-183.336231	929.725287	-285.000731	-17.324605	79.829582	-485.116706	-17.336077	79.355048	-84.528348	
501	2.5050	798.324714	1289.672245	-73.301966	783.810793	1326.362883	-393.545320	813.210922	1389.013745	-237.687970	739.517281	1254.562924	-256.269462	553.588296	1110.166852	69.052712	695.074307	925.035085	-94.066091	595.808008	1152.482276	-551.811603	694.762746	906.040403	-484.149479	226.061071	1298.549766	-323.671030	402.861099	1251.169382	-437.697671	331.943214	1299.949509	-130.609353	423.323036	1198.304961	-386.938496	376.928197	1247.149770	-163.282475	251.429751	1343.164176	-278.661022	273.406526	1333.619549	-353.357573	285.044185	1251.797957	-116.976339	347.383905	1168.794395	-467.623777	381.028903	1114.800137	-96.764735	450.222250	1060.283515	-97.956815	484.270669	982.170816	-101.580251	477.958689	1082.369209	-112.514370	557.471620	855.420695	-120.940732	544.803043	838.164637	-235.436612	484.895540	753.054097	-101.802692	456.499679	667.292522	-116.588722	389.129042	614.183659	-125.791487	485.019096	652.784982	-138.161537	312.910132	483.702894	-133.910708	336.944191	486.813266	-218.206313	239.285337	473.492102	-172.966083	520.745208	372.161625	-162.632064	450.554400	368.925440	-106.386544	370.319703	1078.416922	-472.144880	413.634830	1003.477636	-466.590039	443.823846	1012.621301	-451.090718	415.917957	914.785351	-473.171589	416.319845	749.797435	-461.261285	426.856451	714.034609	-349.937551	342.539797	644.418755	-485.597461	298.127428	572.830993	-463.756087	221.777387	526.696959	-465.388658	318.039531	557.888031	-433.384778	111.805741	420.525633	-462.700843	113.910568	427.463082	-375.216813	49.761734	467.681000	-423.758624	182.502758	190.693660	-402.667720	121.898712	234.834533	-468.958091	-183.310526	929.676673	-285.079569	-17.307065	79.776473	-485.120683	-17.320744	79.363819	-84.528547	
502	2.5100	799.063472	1287.345415	-73.900766	782.178218	1327.257316	-393.886309	812.489020	1388.355322	-237.577972	739.188169	1253.877903	-256.825908	552.827056	1109.455975	68.723392	694.890938	924.821113	-94.457219	595.567727	1152.445450	-551.826685	694.466987	906.118673	-484.508550	225.246072	1296.983118	-321.875952	401.731927	1251.718389	-436.872717	331.930653	1296.206456	-128.770171	422.646481	1198.484921	-386.737922	376.871082	1244.294614	-162.447605	250.392391	1341.342257	-275.974667	272.358277	1332.594803	-351.217353	284.176193	1247.423431	-115.732679	348.092836	1169.533664	-467.316260	378.770453	1109.241292	-95.818154	447.604118	1053.594470	-98.079996	480.639618	975.437186	-102.048318	475.569696	1075.752634	-111.612308	553.932826	849.860228	-121.575245	538.381248	832.400388	-236.200868	481.782008	746.156625	-102.254511	454.952860	659.941484	-116.725871	388.761251	605.504621	-125.545081	483.498660	645.760422	-137.937788	314.915553	473.016325	-133.708837	339.024187	476.312669	-218.169284	241.226458	462.295801	-172.087518	523.327910	362.042351	-162.815522	453.273371	358.428286	-106.505500	371.487541	1079.527611	-471.614909	415.851657	1005.024817	-466.914677	446.075815	1014.485159	-451.715559	419.086935	916.351404	-473.675752	422.092972	751.317894	-461.156686	433.258004	715.614463	-349.715158	346.970064	648.186306	-485.545392	300.614753	577.751059	-463.722840	223.158256	533.713618	-465.262672	320.325023	562.174885	-433.584053	110.694179	430.409368	-462.459052	113.223173	437.074091	-375.118608	49.223136	478.135631	-423.475914	179.320195	199.978410	-402.694425	119.099689	244.737792	-469.035906	-183.267128	929.681593	-285.135496	-17.323151	79.760604	-485.138746	-17.306811	79.357813	-84.534850	
503	2.5150	799.909565	1285.170338	-74.633471	780.677490	1328.060111	-394.260654	811.782893	1387.658644	-237.173774	739.075752	1253.060996	-257.160565	552.545297	1108.693698	68.213127	694.820300	924.375838	-94.959533	595.311290	1152.421328	-551.985524	694.055448	905.977028	-484.741818	224.460414	1295.151203	-319.847002	400.601633	1252.027735	-435.978320	332.039615	1292.168826	-126.932533	421.949289	1198.549253	-386.503334	376.919642	1241.243812	-161.583263	249.362846	1339.499353	-273.107056	271.032006	1331.214721	-348.760768	283.466568	1243.012069	-114.559026	348.181281	1169.680941	-466.788669	376.458771	1103.283596	-95.371238	444.966329	1047.206367	-97.902687	477.259464	968.708866	-102.579611	473.153176	1069.163496	-110.089917	550.607357	843.914046	-122.311410	534.577338	827.016462	-236.959593	478.366681	739.136607	-102.520501	453.134572	652.530626	-116.971603	387.704321	597.018282	-125.929154	482.114294	638.654205	-137.934440	316.491572	462.819977	-133.555395	340.499488	465.841342	-217.823010	242.951639	451.339074	-171.634368	525.547099	351.896826	-162.692740	455.392502	347.724176	-106.803710	372.158244	1080.273789	-471.265912	417.582632	1006.342508	-467.257201	448.293994	1015.957993	-451.449875	421.910418	917.695082	-474.483818	427.426342	752.915801	-461.354640	439.049962	717.069320	-349.916379	351.087410	652.002962	-485.409680	303.208641	582.744230	-463.794484	224.548540	540.590147	-465.045968	322.589856	566.413089	-433.693458	109.988013	440.295006	-462.117276	112.511022	447.053874	-374.939301	48.792359	488.612897	-423.065456	176.923905	209.642662	-402.888940	116.944115	254.822459	-469.187323	-183.237410	929.662969	-285.154096	-17.332809	79.714892	-485.146333	-17.297230	79.334119	-84.530694	
